<svg width="78" height="27" viewBox="0 0 78 27" fill="none" xmlns="http://www.w3.org/2000/svg">
<path d="M8.224 17.756H5.056V26H0.52V1.736H8.116C10.852 1.736 13.036 2.48 14.668 3.968C16.324 5.456 17.152 7.364 17.152 9.692C17.152 12.164 16.3 14.132 14.596 15.596C12.916 17.036 10.792 17.756 8.224 17.756ZM7.72 5.444H5.056V14.084H7.612C9.268 14.084 10.504 13.688 11.32 12.896C12.136 12.104 12.544 11.036 12.544 9.692C12.544 8.372 12.136 7.34 11.32 6.596C10.504 5.828 9.304 5.444 7.72 5.444ZM36.9759 16.82C36.9759 19.58 36.1959 21.848 34.6359 23.624C33.0999 25.4 30.9399 26.288 28.1559 26.288C25.3959 26.288 23.2359 25.424 21.6759 23.696C20.1399 21.968 19.3719 19.76 19.3719 17.072C19.3719 14.288 20.1759 11.996 21.7839 10.196C23.3919 8.372 25.5159 7.46 28.1559 7.46C30.9639 7.46 33.1359 8.348 34.6719 10.124C36.2079 11.876 36.9759 14.108 36.9759 16.82ZM23.9079 16.928C23.9079 18.608 24.2799 20.012 25.0239 21.14C25.7679 22.268 26.8239 22.832 28.1919 22.832C29.6079 22.832 30.6759 22.28 31.3959 21.176C32.1159 20.072 32.4759 18.668 32.4759 16.964C32.4759 15.212 32.1279 13.784 31.4319 12.68C30.7359 11.552 29.6439 10.988 28.1559 10.988C26.7879 10.988 25.7319 11.552 24.9879 12.68C24.2679 13.808 23.9079 15.224 23.9079 16.928ZM45.0194 26H40.6994V0.979998H45.0194V16.316L51.4634 7.748H56.5034L49.8074 16.46L56.6474 26H51.5714L45.0194 16.568V26ZM62.784 26H59.94V7.748H62.784V26ZM62.676 0.692C63.036 1.052 63.216 1.496 63.216 2.024C63.216 2.552 63.036 2.996 62.676 3.356C62.316 3.692 61.872 3.86 61.344 3.86C60.816 3.86 60.372 3.692 60.012 3.356C59.676 2.996 59.508 2.552 59.508 2.024C59.508 1.496 59.676 1.052 60.012 0.692C60.372 0.331999 60.816 0.151998 61.344 0.151998C61.872 0.151998 62.316 0.331999 62.676 0.692ZM77.3423 25.532C76.5503 25.964 75.6623 26.18 74.6783 26.18C71.0783 26.18 69.2783 24.344 69.2783 20.672V10.052H66.3623V7.748H69.2783V3.212H72.1223V7.748H77.1623V10.052H72.1223V20.744C72.1223 22.688 73.0343 23.66 74.8583 23.66C75.7943 23.66 76.6223 23.384 77.3423 22.832V25.532Z" fill="white"/>
</svg>
