<svg width="76" height="27" viewBox="0 0 76 27" fill="none" xmlns="http://www.w3.org/2000/svg">
<path d="M8.224 17.756H5.056V26H0.52V1.736H8.116C10.852 1.736 13.036 2.48 14.668 3.968C16.324 5.456 17.152 7.364 17.152 9.692C17.152 12.164 16.3 14.132 14.596 15.596C12.916 17.036 10.792 17.756 8.224 17.756ZM7.72 5.444H5.056V14.084H7.612C9.268 14.084 10.504 13.688 11.32 12.896C12.136 12.104 12.544 11.036 12.544 9.692C12.544 8.372 12.136 7.34 11.32 6.596C10.504 5.828 9.304 5.444 7.72 5.444ZM36.9759 16.82C36.9759 19.58 36.1959 21.848 34.6359 23.624C33.0999 25.4 30.9399 26.288 28.1559 26.288C25.3959 26.288 23.2359 25.424 21.6759 23.696C20.1399 21.968 19.3719 19.76 19.3719 17.072C19.3719 14.288 20.1759 11.996 21.7839 10.196C23.3919 8.372 25.5159 7.46 28.1559 7.46C30.9639 7.46 33.1359 8.348 34.6719 10.124C36.2079 11.876 36.9759 14.108 36.9759 16.82ZM23.9079 16.928C23.9079 18.608 24.2799 20.012 25.0239 21.14C25.7679 22.268 26.8239 22.832 28.1919 22.832C29.6079 22.832 30.6759 22.28 31.3959 21.176C32.1159 20.072 32.4759 18.668 32.4759 16.964C32.4759 15.212 32.1279 13.784 31.4319 12.68C30.7359 11.552 29.6439 10.988 28.1559 10.988C26.7879 10.988 25.7319 11.552 24.9879 12.68C24.2679 13.808 23.9079 15.224 23.9079 16.928ZM43.7954 26H40.9874V0.692H43.7954V26ZM47.5034 16.424L54.9194 26H51.4994L44.1554 16.424L51.3194 7.748H54.7034L47.5034 16.424ZM61.2723 26H58.4283V7.748H61.2723V26ZM61.1643 0.692C61.5243 1.052 61.7043 1.496 61.7043 2.024C61.7043 2.552 61.5243 2.996 61.1643 3.356C60.8043 3.692 60.3603 3.86 59.8323 3.86C59.3043 3.86 58.8603 3.692 58.5003 3.356C58.1643 2.996 57.9963 2.552 57.9963 2.024C57.9963 1.496 58.1643 1.052 58.5003 0.692C58.8603 0.331999 59.3043 0.151998 59.8323 0.151998C60.3603 0.151998 60.8043 0.331999 61.1643 0.692ZM75.8306 25.532C75.0386 25.964 74.1506 26.18 73.1666 26.18C69.5666 26.18 67.7666 24.344 67.7666 20.672V10.052H64.8506V7.748H67.7666V3.212H70.6106V7.748H75.6506V10.052H70.6106V20.744C70.6106 22.688 71.5226 23.66 73.3466 23.66C74.2826 23.66 75.1106 23.384 75.8306 22.832V25.532Z" fill="white"/>
</svg>
